<svg xmlns="http://www.w3.org/2000/svg" xmlns:xlink="http://www.w3.org/1999/xlink" width="50" zoomAndPan="magnify" viewBox="0 0 37.5 37.499999" height="50" preserveAspectRatio="xMidYMid meet" version="1.0"><defs><clipPath id="cbaac88a8d"><path d="M 0 0 L 37.007812 0 L 37.007812 37.007812 L 0 37.007812 Z M 0 0 " clip-rule="nonzero"/></clipPath></defs><g clip-path="url(#cbaac88a8d)"><path fill="#bfbdbc" d="M 37.007812 18.503906 C 37.007812 28.722656 28.722656 37.007812 18.503906 37.007812 C 8.285156 37.007812 0 28.722656 0 18.503906 C 0 8.285156 8.285156 0 18.503906 0 C 28.722656 0 37.007812 8.285156 37.007812 18.503906 " fill-opacity="1" fill-rule="nonzero"/></g><path fill="#ffffff" d="M 25.078125 12.65625 C 25.078125 16.296875 22.121094 19.25 18.480469 19.25 C 14.835938 19.25 11.882812 16.296875 11.882812 12.65625 C 11.882812 9.011719 14.835938 6.058594 18.480469 6.058594 C 22.121094 6.058594 25.078125 9.011719 25.078125 12.65625 " fill-opacity="1" fill-rule="nonzero"/><path fill="#ffffff" d="M 18.480469 36.128906 C 23.148438 36.128906 27.410156 34.398438 30.667969 31.546875 C 29.65625 24.949219 26.679688 20.371094 18.480469 20.371094 C 10.507812 20.371094 7.425781 24.96875 6.339844 31.589844 C 9.589844 34.417969 13.835938 36.128906 18.480469 36.128906 " fill-opacity="1" fill-rule="nonzero"/></svg>